<svg style="position: absolute; width: 0; height: 0;" width="0" height="0" version="1.1" xmlns="http://www.w3.org/2000/svg" xmlns:xlink="http://www.w3.org/1999/xlink">
<defs>
<symbol id="icon-connection" viewBox="0 0 1280 1024">
	<title>connection</title>
	<path class="path1" d="M640 576c105.87 0 201.87 43.066 271.402 112.598l-90.468 90.468c-46.354-46.356-110.356-75.066-180.934-75.066s-134.578 28.71-180.934 75.066l-90.468-90.468c69.532-69.532 165.532-112.598 271.402-112.598zM187.452 507.452c120.88-120.88 281.598-187.452 452.548-187.452s331.668 66.572 452.55 187.452l-90.51 90.508c-96.706-96.704-225.28-149.96-362.040-149.96-136.762 0-265.334 53.256-362.038 149.962l-90.51-90.51zM988.784 134.438c106.702 45.132 202.516 109.728 284.782 191.996v0l-90.508 90.508c-145.056-145.056-337.92-224.942-543.058-224.942-205.14 0-398 79.886-543.058 224.942l-90.51-90.51c82.268-82.266 178.082-146.862 284.784-191.994 110.504-46.738 227.852-70.438 348.784-70.438s238.278 23.7 348.784 70.438zM576 896c0-35.346 28.654-64 64-64s64 28.654 64 64c0 35.346-28.654 64-64 64s-64-28.654-64-64z"></path>
</symbol>
<symbol id="icon-spinner3" viewBox="0 0 1024 1024">
	<title>spinner3</title>
	<path class="path1" d="M512 303.096c-32.964 0-59.686-26.724-59.686-59.686v-179.060c0-32.964 26.722-59.686 59.686-59.686 32.962 0 59.688 26.722 59.688 59.686v179.060c0 32.964-26.726 59.686-59.688 59.686z"></path>
	<path class="path2" d="M512 996.956c-20.602 0-37.304-16.702-37.304-37.304v-179.060c0-20.602 16.702-37.304 37.304-37.304 20.604 0 37.304 16.704 37.304 37.304v179.060c0 20.602-16.7 37.304-37.304 37.304z"></path>
	<path class="path3" d="M377.756 335.36c-19.34 0-38.146-10.034-48.512-27.988l-89.53-155.070c-15.452-26.764-6.282-60.986 20.482-76.438 26.762-15.45 60.986-6.284 76.438 20.482l89.53 155.072c15.452 26.764 6.282 60.986-20.482 76.438-8.81 5.084-18.432 7.504-27.926 7.504z"></path>
	<path class="path4" d="M735.856 933.256c-11.602 0-22.886-6.022-29.108-16.792l-89.53-155.070c-9.27-16.056-3.77-36.592 12.29-45.864 16.056-9.264 36.59-3.77 45.864 12.292l89.532 155.068c9.27 16.058 3.768 36.592-12.292 45.864-5.286 3.048-11.060 4.502-16.756 4.502z"></path>
	<path class="path5" d="M279.344 429.94c-8.86 0-17.838-2.256-26.064-7.006l-155.072-89.53c-24.978-14.422-33.538-46.362-19.116-71.342 14.42-24.978 46.364-33.538 71.342-19.116l155.070 89.53c24.98 14.422 33.538 46.362 19.116 71.34-9.668 16.756-27.226 26.124-45.276 26.124z"></path>
	<path class="path6" d="M899.648 765.674c-5.064 0-10.196-1.29-14.894-4.004l-155.068-89.53c-14.274-8.24-19.164-26.494-10.924-40.768 8.242-14.276 26.496-19.166 40.766-10.924l155.070 89.532c14.274 8.24 19.164 26.492 10.924 40.766-5.53 9.574-15.562 14.928-25.874 14.928z"></path>
	<path class="path7" d="M243.41 560.496h-179.060c-26.784 0-48.496-21.712-48.496-48.496s21.712-48.496 48.496-48.496h179.060c26.784 0 48.496 21.712 48.496 48.496s-21.712 48.496-48.496 48.496z"></path>
	<path class="path8" d="M959.65 541.844c-0.002 0 0 0 0 0h-179.060c-16.482-0.002-29.844-13.364-29.844-29.844s13.364-29.844 29.844-29.844c0.002 0 0 0 0 0h179.060c16.482 0 29.844 13.362 29.844 29.844 0 16.48-13.364 29.844-29.844 29.844z"></path>
	<path class="path9" d="M124.366 780.598c-15.472 0-30.518-8.028-38.81-22.39-12.362-21.41-5.026-48.79 16.384-61.148l155.072-89.532c21.41-12.368 48.79-5.028 61.15 16.384 12.362 21.412 5.026 48.79-16.384 61.15l-155.072 89.53c-7.050 4.070-14.748 6.006-22.34 6.006z"></path>
	<path class="path10" d="M744.632 407.552c-10.314 0-20.346-5.352-25.874-14.926-8.24-14.274-3.35-32.526 10.924-40.768l155.070-89.528c14.272-8.236 32.526-3.352 40.768 10.922 8.24 14.274 3.35 32.526-10.924 40.768l-155.070 89.528c-4.7 2.714-9.83 4.004-14.894 4.004z"></path>
	<path class="path11" d="M288.136 940.716c-6.962 0-14.016-1.774-20.48-5.504-19.626-11.332-26.35-36.428-15.020-56.054l89.53-155.070c11.33-19.628 36.426-26.352 56.054-15.022 19.626 11.332 26.35 36.43 15.020 56.054l-89.53 155.072c-7.598 13.166-21.392 20.524-35.574 20.524z"></path>
	<path class="path12" d="M646.266 309.242c-5.062 0-10.196-1.29-14.894-4.002-14.274-8.242-19.164-26.494-10.924-40.766l89.534-155.070c8.24-14.274 26.492-19.166 40.766-10.922 14.274 8.242 19.164 26.494 10.924 40.766l-89.532 155.070c-5.53 9.57-15.56 14.924-25.874 14.924z"></path>
</symbol>
<symbol id="icon-share2" viewBox="0 0 1024 1024">
	<title>share2</title>
	<path class="path1" d="M864 704c-45.16 0-85.92 18.738-115.012 48.83l-431.004-215.502c1.314-8.252 2.016-16.706 2.016-25.328s-0.702-17.076-2.016-25.326l431.004-215.502c29.092 30.090 69.852 48.828 115.012 48.828 88.366 0 160-71.634 160-160s-71.634-160-160-160-160 71.634-160 160c0 8.622 0.704 17.076 2.016 25.326l-431.004 215.504c-29.092-30.090-69.852-48.83-115.012-48.83-88.366 0-160 71.636-160 160 0 88.368 71.634 160 160 160 45.16 0 85.92-18.738 115.012-48.828l431.004 215.502c-1.312 8.25-2.016 16.704-2.016 25.326 0 88.368 71.634 160 160 160s160-71.632 160-160c0-88.364-71.634-160-160-160z"></path>
</symbol>
<symbol id="icon-android" viewBox="0 0 1024 1024">
	<title>android</title>
	<path class="path1" d="M896 384c-35.2 0-64 28.8-64 64v256c0 35.2 28.8 64 64 64s64-28.8 64-64v-256c0-35.2-28.8-64-64-64zM128 384c-35.2 0-64 28.8-64 64v256c0 35.2 28.8 64 64 64s64-28.8 64-64v-256c0-35.2-28.802-64-64-64zM224 736c0 53.020 42.98 96 96 96v0 128c0 35.2 28.8 64 64 64s64-28.8 64-64v-128h128v128c0 35.2 28.8 64 64 64s64-28.8 64-64v-128c53.020 0 96-42.98 96-96v-352h-576v352z"></path>
	<path class="path2" d="M798.216 320.002c-9.716-87.884-59.004-163.792-129.62-209.646l32.024-64.046c7.904-15.806 1.496-35.028-14.31-42.932s-35.030-1.496-42.932 14.312l-32.142 64.286-8.35-3.316c-28.568-9.502-59.122-14.66-90.886-14.66-31.762 0-62.316 5.158-90.888 14.656l-8.348 3.316-32.142-64.282c-7.904-15.808-27.128-22.212-42.932-14.312-15.808 7.904-22.214 27.126-14.312 42.932l32.022 64.046c-70.616 45.852-119.904 121.762-129.622 209.644v32h574.222v-31.998h-1.784zM416 256c-17.674 0-32-14.328-32-32 0-17.648 14.288-31.958 31.93-31.996 0.032 0 0.062 0.002 0.094 0.002 0.018 0 0.036-0.002 0.052-0.002 17.638 0.042 31.924 14.35 31.924 31.996 0 17.672-14.326 32-32 32zM608 256c-17.674 0-32-14.328-32-32 0-17.646 14.286-31.954 31.924-31.996 0.016 0 0.034 0.002 0.050 0.002 0.032 0 0.064-0.002 0.096-0.002 17.64 0.038 31.93 14.348 31.93 31.996 0 17.672-14.326 32-32 32z"></path>
</symbol>
</defs>
</svg>
