<?xml version="1.0" encoding="UTF-8" standalone="no"?>
<!-- Created with Inkscape (http://www.inkscape.org/) -->

<svg
   xmlns:dc="http://purl.org/dc/elements/1.1/"
   xmlns:cc="http://creativecommons.org/ns#"
   xmlns:rdf="http://www.w3.org/1999/02/22-rdf-syntax-ns#"
   xmlns:svg="http://www.w3.org/2000/svg"
   xmlns="http://www.w3.org/2000/svg"
   xmlns:sodipodi="http://sodipodi.sourceforge.net/DTD/sodipodi-0.dtd"
   xmlns:inkscape="http://www.inkscape.org/namespaces/inkscape"
   id="svg2"
   version="1.1"
   inkscape:version="0.91 r13725"
   width="118"
   height="118"
   viewBox="0 0 118 118"
   sodipodi:docname="logo-ptp.svg">
  <metadata
     id="metadata8">
    <rdf:RDF>
      <cc:Work
         rdf:about="">
        <dc:format>image/svg+xml</dc:format>
        <dc:type
           rdf:resource="http://purl.org/dc/dcmitype/StillImage" />
        <dc:title></dc:title>
      </cc:Work>
    </rdf:RDF>
  </metadata>
  <defs
     id="defs6">
    <filter
       inkscape:label="Blur Double"
       inkscape:menu="Blurs"
       inkscape:menu-tooltip="Overlays two copies with different blur amounts and modifiable blend and composite"
       style="color-interpolation-filters:sRGB;"
       id="filter4214">
      <feGaussianBlur
         stdDeviation="5"
         result="fbSourceGraphic"
         id="feGaussianBlur4216" />
      <feGaussianBlur
         stdDeviation="0.01"
         in="SourceGraphic"
         result="result1"
         id="feGaussianBlur4218" />
      <feComposite
         in2="result1"
         operator="arithmetic"
         in="fbSourceGraphic"
         k2="0.5"
         k3="0.5"
         result="result2"
         id="feComposite4220" />
      <feBlend
         in2="fbSourceGraphic"
         mode="normal"
         result="result3"
         id="feBlend4222" />
    </filter>
    <filter
       inkscape:label="Blur Double"
       inkscape:menu="Blurs"
       inkscape:menu-tooltip="Overlays two copies with different blur amounts and modifiable blend and composite"
       style="color-interpolation-filters:sRGB"
       id="filter4214-0">
      <feGaussianBlur
         stdDeviation="5"
         result="fbSourceGraphic"
         id="feGaussianBlur4216-5" />
      <feGaussianBlur
         stdDeviation="0.01"
         in="SourceGraphic"
         result="result1"
         id="feGaussianBlur4218-3" />
      <feComposite
         k4="0"
         k1="0"
         in2="result1"
         operator="arithmetic"
         in="fbSourceGraphic"
         k2="0.5"
         k3="0.5"
         result="result2"
         id="feComposite4220-0" />
      <feBlend
         in2="fbSourceGraphic"
         mode="normal"
         result="result3"
         id="feBlend4222-2" />
    </filter>
  </defs>
  <sodipodi:namedview
     pagecolor="#ffffff"
     bordercolor="#666666"
     borderopacity="1"
     objecttolerance="10"
     gridtolerance="10"
     guidetolerance="10"
     inkscape:pageopacity="0"
     inkscape:pageshadow="2"
     inkscape:window-width="1280"
     inkscape:window-height="738"
     id="namedview4"
     showgrid="false"
     inkscape:zoom="3.9687133"
     inkscape:cx="54.418038"
     inkscape:cy="58.080151"
     inkscape:window-x="-8"
     inkscape:window-y="-8"
     inkscape:window-maximized="1"
     inkscape:current-layer="svg2" />
  <g
     transform="scale(1.0517764,0.95077242)"
     style="font-style:italic;font-variant:normal;font-weight:bold;font-stretch:normal;font-size:26.42925644px;line-height:125%;font-family:sans-serif;-inkscape-font-specification:'sans-serif Bold Italic';letter-spacing:0px;word-spacing:0px;fill:#000000;fill-opacity:1;stroke:#cadaac;stroke-width:0.44623554;stroke-linecap:butt;stroke-linejoin:miter;stroke-miterlimit:4;stroke-dasharray:none;stroke-opacity:1"
     id="text4364-8" />
  <g
     id="g4457">
    <rect
       y="2.7408786"
       x="2.1592863"
       height="113.35181"
       width="113.85574"
       id="rect4417"
       style="opacity:0.69899998;fill:#4affff;fill-opacity:0.6201117;stroke:#1edacc;stroke-width:4.191;stroke-miterlimit:4;stroke-dasharray:none;stroke-opacity:1" />
    <path
       id="path4452"
       d="M 48.482189,100.29255 C 47.549002,98.939441 45.568633,97.265175 43.820148,96.351115 42.939153,95.890543 40.282208,94.851473 37.915843,94.042067 29.411016,91.133 25.649542,89.020754 21.437926,84.788928 18.681415,82.019159 16.484808,78.749421 14.864431,75.003987 14.19801,73.463553 14.194855,73.460262 13.931304,74.029656 c -0.145457,0.314229 -0.313369,1.397833 -0.373171,2.408014 -0.05976,1.010176 -0.190284,1.836685 -0.289992,1.836685 -0.591794,0 -3.922719,-6.378122 -4.753733,-9.102556 C 6.6717245,63.13069 6.5528096,55.925001 8.201231,50.196184 c 0.686815,-2.386874 2.352567,-6.348565 2.730629,-6.49435 0.429067,-0.165439 0.465726,-0.08293 0.792123,1.782477 0.571481,3.26628 2.783855,7.85401 6.449244,13.373639 2.699915,4.065755 5.941562,7.871402 7.798197,9.154986 0.49791,0.344225 0.902312,0.739394 0.898679,0.878159 -0.0081,0.334856 -0.956737,1.406792 -1.244111,1.406792 -0.124475,0 -0.460754,-0.154393 -0.747378,-0.343099 -0.400861,-0.26393 -0.835681,-0.317724 -1.884415,-0.233133 -0.749803,0.06048 -1.411343,0.158253 -1.47009,0.217269 -0.363238,0.365019 2.532542,4.689114 4.398501,6.567969 2.159562,2.174494 6.030464,3.679512 8.563361,3.329464 3.041846,-0.420393 6.324363,-2.573433 7.551946,-4.953435 1.608831,-3.119144 2.370068,-13.203638 1.978917,-26.216073 -0.119564,-3.977155 -0.217871,-7.585405 -0.21848,-8.018341 l -0.001,-0.787151 -8.146936,0 -8.146926,0 0,-4.40805 0,-4.408048 8.251383,0 8.251372,0 0,-1.060247 c 0,-1.030509 -0.02192,-1.068878 -0.783357,-1.368063 -1.678171,-0.65944 -2.304087,-1.092806 -3.919746,-2.713907 C 37.45831,24.052025 36.589886,22.60628 35.835386,20.13009 34.839677,16.862259 35.355211,12.541024 37.10399,9.4965657 38.616583,6.8632806 41.581571,4.439482 44.536443,3.4207041 c 2.352353,-0.811039 6.152301,-0.9556591 8.621855,-0.3281373 2.74882,0.6984898 4.284932,1.5747159 6.330978,3.6113367 1.477091,1.4702826 1.951523,2.1110411 2.64204,3.5684205 1.083729,2.287199 1.386891,3.620599 1.382213,6.07944 -0.0061,3.874129 -1.24401,6.884895 -3.925022,9.555983 -1.627642,1.621627 -2.23843,2.042011 -3.936336,2.709202 -0.7614,0.299185 -0.783356,0.337554 -0.783356,1.368063 l 0,1.060247 8.251372,0 8.251382,0 0,4.408048 0,4.40805 -8.146936,0 -8.146926,0 -0.0061,1.102014 c -0.002,0.606105 -0.09466,4.213111 -0.202916,8.015565 -0.399521,14.024668 0.424441,23.423175 2.312752,26.380085 1.124151,1.76033 3.035119,3.237506 5.185287,4.00822 1.638265,0.587225 4.288524,0.574915 5.973696,-0.02776 1.620935,-0.579688 3.860461,-1.921777 4.700901,-2.817111 1.719852,-1.832214 4.627452,-6.263835 4.315412,-6.577374 -0.0622,-0.06238 -0.726335,-0.162873 -1.476137,-0.223354 -1.048734,-0.08458 -1.483555,-0.03079 -1.884415,0.233136 -0.286624,0.188704 -0.622934,0.343097 -0.747378,0.343097 -0.287364,0 -1.235345,-1.071935 -1.244101,-1.40679 -0.002,-0.138756 0.392906,-0.528548 0.881197,-0.866186 3.769196,-2.606257 10.772916,-12.741921 13.388738,-19.375925 0.510877,-1.295635 0.754369,-2.253601 1.073186,-4.22215 0.20593,-1.271475 0.669698,-0.989558 1.553919,0.944583 1.92361,4.207742 2.717732,7.700831 2.875132,12.646903 0.222935,7.00476 -1.146209,12.256226 -4.800629,18.41338 -1.121787,1.890046 -1.604935,2.268823 -1.614087,1.265412 -0.01552,-1.692581 -0.206173,-3.443366 -0.418596,-3.842202 -0.220845,-0.414654 -0.296587,-0.322456 -0.921256,1.121465 -2.705465,6.253623 -7.001538,11.229317 -12.561041,14.548145 -2.669842,1.593791 -5.327234,2.745914 -10.114865,4.385376 -5.339196,1.828312 -5.726431,1.988412 -7.440661,3.076291 -1.221516,0.775185 -4.050584,3.557553 -4.050584,3.983713 0,0.50583 -0.844285,0.0893 -1.37303,-0.67734 z"
       style="fill:#000000;fill-opacity:1;stroke:#0adacc;stroke-width:1.24221778;stroke-miterlimit:4;stroke-dasharray:none;stroke-opacity:1" />
    <path
       id="path4450"
       d="m 51.254376,98.465481 c 2.329372,-2.342569 3.406475,-2.907859 9.471559,-4.970831 8.880373,-3.020603 13.727553,-5.940176 17.709852,-10.667098 2.406128,-2.856025 5.064778,-7.3502 5.580668,-9.433536 0.09213,-0.372523 0.281367,-0.577246 0.53327,-0.577246 0.662149,0 1.122183,1.000313 1.235538,2.686679 l 0.104476,1.553783 1.003228,-1.671002 c 1.92918,-3.213267 3.311951,-7.040712 4.037524,-11.175648 0.467451,-2.66383 0.459984,-7.594623 -0.01573,-10.390403 -0.385662,-2.266718 -1.659898,-6.383117 -2.474373,-7.9935 l -0.504901,-0.998297 -0.345919,1.539158 c -0.816261,3.632013 -4.3368,10.242116 -8.352987,15.68344 -1.733884,2.349159 -5.056834,5.945146 -6.024539,6.519543 -0.526107,0.312287 -0.548196,0.373173 -0.253963,0.699884 0.285061,0.316519 0.386961,0.323939 0.882344,0.06423 0.673087,-0.352865 1.735782,-0.376026 3.160974,-0.0689 1.281673,0.276203 1.333795,0.553129 0.425781,2.262203 -0.706925,1.330577 -3.094273,4.590711 -4.116047,5.620794 -0.939113,0.94677 -2.982643,2.107159 -4.776421,2.712224 -3.825406,1.290367 -8.119328,0.136969 -10.91682,-2.932393 -1.64996,-1.810292 -2.433814,-4.367258 -2.997909,-9.779286 -0.309188,-2.966239 -0.333844,-24.961215 -0.03003,-26.725376 l 0.174253,-1.011752 8.09933,0.02151 8.09935,0.02151 -0.05682,-3.942572 -0.05682,-3.942574 -8.208261,-0.05491 -8.20826,-0.05492 0.06128,-1.49739 c 0.04404,-1.072487 0.150257,-1.543179 0.374683,-1.658749 0.172335,-0.08874 0.877352,-0.422008 1.566713,-0.740582 0.842601,-0.389389 1.734706,-1.066067 2.721984,-2.06466 C 63.691286,20.913009 64.2533,14.15888 60.550949,8.7516234 58.983221,6.461982 55.94099,4.3808561 53.1014,3.6555504 c -1.647153,-0.4207275 -5.680853,-0.4207275 -7.328016,0 -4.273985,1.0916923 -7.776484,4.3820513 -9.207186,8.6495436 -1.570336,4.684025 -0.346923,9.681636 3.25644,13.302447 1.243209,1.249238 1.858339,1.697515 2.831128,2.063244 0.683557,0.25699 1.361463,0.566196 1.506475,0.687129 0.165445,0.137963 0.263662,0.756799 0.263662,1.661086 l 0,1.441211 -8.199149,0.05492 -8.199149,0.0549 -0.05682,3.942572 -0.05682,3.942572 8.099329,-0.02123 8.09934,-0.02123 0.180321,0.906518 c 0.09923,0.498587 0.193186,6.290635 0.208902,12.871223 0.02476,10.341788 -0.02192,12.369562 -0.343919,14.949461 -0.447514,3.58607 -0.988191,5.813932 -1.754147,7.22806 -0.800139,1.477249 -2.785844,3.248838 -4.625443,4.126688 -1.345696,0.642163 -1.795229,0.747054 -3.569729,0.832911 -2.292804,0.110939 -3.614808,-0.178368 -5.752222,-1.258827 -2.106345,-1.064753 -2.920557,-1.783607 -4.665856,-4.119477 -1.869256,-2.501722 -2.969756,-4.361379 -2.969756,-5.018304 0,-0.356129 0.197001,-0.480381 1.05475,-0.665225 1.425193,-0.307129 2.487898,-0.283971 3.160974,0.06889 0.496632,0.26036 0.597213,0.252359 0.888098,-0.07062 0.30167,-0.334952 0.284228,-0.387794 -0.21705,-0.657362 -1.006312,-0.54117 -4.764864,-4.712521 -6.662388,-7.394149 -2.493762,-3.524183 -3.800659,-5.712846 -5.635337,-9.437431 -1.348283,-2.737147 -1.823699,-4.042897 -2.312457,-6.35117 l -0.133343,-0.629719 -0.512166,1.007444 C 9.762486,47.15371 8.59779,50.718722 8.197619,52.695602 6.5911424,60.63164 8.159059,69.440677 12.339276,75.965375 l 0.739666,1.15449 0.0061,-1.469349 c 0.0061,-1.62183 0.558393,-2.920588 1.187353,-2.795578 0.195428,0.03884 0.659064,0.816537 1.107988,1.858496 2.21622,5.143903 5.951121,9.823729 10.339312,12.955183 2.858269,2.039681 7.075891,4.018181 12.437378,5.834377 5.984817,2.027361 7.122706,2.626714 9.399885,4.951112 0.976827,0.997079 1.79464,1.823594 1.817378,1.836684 0.02283,0.013 0.868769,-0.808278 1.880073,-1.825288 z"
       style="fill:#000000;fill-opacity:1;stroke:#0adacc;stroke-width:1.24221778;stroke-miterlimit:4;stroke-dasharray:none;stroke-opacity:1" />
    <path
       id="path4448"
       d="M 47.867647,97.399854 C 45.714395,95.427513 43.63303,94.383523 38.037923,92.469372 35.518369,91.607395 32.704967,90.555698 31.785934,90.132252 24.981112,86.997007 20.179336,82.402168 16.964912,75.949947 c -0.622061,-1.248661 -1.295655,-2.795046 -1.496846,-3.43641 -0.201202,-0.641364 -0.466163,-1.165764 -0.588781,-1.165329 -0.421214,0.0015 -1.550276,0.814347 -2.022405,1.456016 -0.259908,0.353246 -0.582804,0.642269 -0.717548,0.642269 -0.282706,0 -1.504861,-2.621112 -2.153201,-4.617957 -1.248829,-3.846279 -1.785184,-9.347093 -1.300859,-13.341598 0.244739,-2.018464 1.128808,-5.901193 1.514612,-6.652054 0.366749,-0.713711 0.710536,-0.344941 1.597568,1.713663 2.147905,4.984723 7.745457,13.526294 10.663974,16.272666 0.942796,0.887197 0.864477,1.291709 -0.280627,1.449423 -1.510766,0.208074 -2.406554,0.667899 -2.406554,1.23531 0,1.228813 3.130281,6.222468 5.200769,8.29666 0.948904,0.950595 3.262722,2.291927 5.075666,2.942399 2.18291,0.783204 5.093939,0.779521 7.108927,-0.0089 2.761534,-1.080657 5.261212,-3.25252 6.289845,-5.464975 1.648686,-3.546102 2.384446,-11.898507 2.129976,-24.179683 -0.197325,-9.523381 -0.347399,-11.730213 -0.834544,-12.271108 -0.374937,-0.416305 -0.600449,-0.428252 -8.082477,-0.428252 l -7.696744,0 0,-2.938701 0,-2.938698 8.251372,0 8.251362,0 0,-1.965811 c 0,-2.326871 -0.267325,-2.82488 -1.830071,-3.409019 -2.923986,-1.092969 -5.503171,-4.162777 -6.426445,-7.648929 -0.350748,-1.324357 -0.396559,-4.701253 -0.08239,-6.077787 0.437418,-1.916974 1.639442,-4.0151809 3.200108,-5.5860592 2.486234,-2.5024922 5.336873,-3.6425633 9.107864,-3.6425633 3.828094,0 6.483163,1.0511022 8.991556,3.5596033 2.525257,2.5253682 3.550897,4.9722732 3.564006,8.5027642 0.0081,2.342308 -0.253861,3.548314 -1.211003,5.562539 -1.046908,2.203115 -3.388323,4.537262 -5.225477,5.209236 -1.892917,0.692369 -2.150055,1.11459 -2.150055,3.530215 l 0,1.965811 8.251372,0 8.251382,0 0,2.938698 0,2.938701 -7.696764,0 c -7.482301,0 -7.707509,0.01201 -8.082507,0.428296 -0.560645,0.622504 -0.74543,4.187554 -0.782971,15.104829 -0.03856,11.186263 0.341596,16.090786 1.545335,19.941172 1.594656,5.100849 7.246663,8.384287 12.502802,7.263284 1.732585,-0.36951 3.9901,-1.386642 5.471037,-2.464976 2.341983,-1.70532 6.234466,-7.504215 6.234466,-9.287899 0,-0.421443 -0.176038,-0.542489 -1.214849,-0.835379 -0.668175,-0.188387 -1.4202,-0.342521 -1.671159,-0.342521 -0.763815,0 -0.530785,-0.601179 0.777887,-2.006935 3.519911,-3.781021 9.010814,-12.470118 10.57627,-16.736494 0.684146,-1.864475 1.271963,-0.967613 2.241687,3.420212 0.600358,2.716438 0.646148,9.237432 0.08462,12.04321 -0.68998,3.44743 -2.572213,8.527685 -3.159513,8.527685 -0.134753,0 -0.457639,-0.289022 -0.717548,-0.64227 -0.472118,-0.641667 -1.60117,-1.454535 -2.022374,-1.456016 -0.122649,-4.2e-4 -0.387589,0.523967 -0.588791,1.16533 -0.201201,0.641365 -0.873344,2.184875 -1.49367,3.430012 -4.130851,8.291751 -10.54024,13.269852 -21.508674,16.705558 -5.18411,1.623846 -7.246349,2.68061 -9.536718,4.886942 l -1.389802,1.3388 -1.610282,-1.474983 z"
       style="fill:#000000;fill-opacity:1;stroke:#0adacc;stroke-width:1.24221778;stroke-miterlimit:4;stroke-dasharray:none;stroke-opacity:1" />
    <path
       id="path4444"
       d="M 47.035121,24.453726 C 45.54623,23.97933 44.383188,23.260679 43.347228,22.174966 39.292536,17.925531 40.521336,11.172048 45.826826,8.5471433 47.141383,7.8967588 47.373775,7.8509126 49.328382,7.85635 c 1.688662,0.00498 2.327251,0.099482 3.301926,0.4900862 1.688744,0.6767869 3.507755,2.4176848 4.375885,4.1879938 0.599262,1.222049 0.691106,1.636168 0.752156,3.39182 0.07985,2.295109 -0.296678,3.627526 -1.509214,5.34124 -1.945313,2.749376 -6.088491,4.182101 -9.214014,3.186236 z"
       style="fill:#000000;fill-opacity:1;stroke:#0adacc;stroke-width:1.24221778;stroke-miterlimit:4;stroke-dasharray:none;stroke-opacity:1" />
    <path
       id="path4442"
       d="m 52.675307,23.482769 c 1.5637,-0.746115 3.488893,-2.771851 4.038205,-4.249119 0.658567,-1.771113 0.76973,-3.183623 0.372958,-4.739854 C 56.454487,12.014978 54.895799,10.11662 52.607449,9.038685 51.567269,8.5487049 51.16586,8.4809926 49.332978,8.4863356 c -1.861271,0.00541 -2.218462,0.07036 -3.277109,0.5956386 -1.484122,0.7364009 -3.148991,2.4794998 -3.885583,4.0681518 -0.476756,1.028234 -0.559874,1.488009 -0.559874,3.096682 0,1.605484 0.0835,2.069231 0.556048,3.088299 0.745166,1.606938 1.524728,2.561399 2.779706,3.403311 1.675249,1.123844 2.662303,1.393635 4.804607,1.313258 1.442928,-0.05415 2.122894,-0.186416 2.924534,-0.568907 z"
       style="fill:#000000;fill-opacity:1;stroke:#0adacc;stroke-width:1.24221778;stroke-miterlimit:4;stroke-dasharray:none;stroke-opacity:1" />
    <path
       id="path4440"
       d="m 47.20221,22.901647 c -3.186908,-1.147049 -4.784425,-3.578442 -4.61695,-7.026911 0.09954,-2.047669 0.599394,-3.246484 1.905306,-4.568656 1.385399,-1.4026437 2.817207,-1.9762073 4.946858,-1.9816584 1.522831,-0.00392 1.943396,0.078258 2.954101,0.5769952 1.307282,0.6450932 2.611825,1.9431102 3.350162,3.3333492 0.414346,0.78023 0.484822,1.21817 0.48468,3.012042 -1.42e-4,1.867334 -0.06149,2.215872 -0.555765,3.157034 -0.67684,1.288808 -2.176994,2.717331 -3.445882,3.281339 -1.370586,0.609211 -3.657485,0.707775 -5.02251,0.216466 z"
       style="fill:#000000;fill-opacity:1;stroke:#0adacc;stroke-width:1.24221778;stroke-miterlimit:4;stroke-dasharray:none;stroke-opacity:1" />
    <path
       id="path4438"
       d="m 52.270764,21.964975 c 1.095163,-0.562034 2.351815,-1.794113 2.875629,-2.819406 0.16572,-0.324378 0.412174,-1.130252 0.547647,-1.790827 0.419206,-2.044014 -0.387112,-4.402407 -1.988069,-5.814876 -1.418009,-1.251054 -2.318201,-1.5852733 -4.268547,-1.5848048 -1.518163,3.563e-4 -1.92705,0.081068 -2.820088,0.5565878 -2.284748,1.216587 -3.54141,3.253795 -3.537768,5.735159 0.002,1.969883 0.616907,3.346872 2.099537,4.708474 1.457326,1.338357 2.466418,1.704086 4.467212,1.619083 1.180879,-0.05018 1.82721,-0.200247 2.624447,-0.60939 z"
       style="fill:#000000;fill-opacity:1;stroke:#0adacc;stroke-width:1.24221778;stroke-miterlimit:4;stroke-dasharray:none;stroke-opacity:1" />
    <path
       id="path4436"
       d="m 103.49355,112.20588 q -1.98313,0 -3.8423,-0.35121 -1.859168,-0.3512 -2.850738,-0.81946 l 0.950244,-3.85017 0.454474,0 q 0.30297,0.24715 0.75744,0.54631 0.46823,0.29916 1.32209,0.62435 0.72989,0.29917 1.6939,0.52029 0.96402,0.20813 2.07952,0.20813 1.66638,0 2.49268,-0.36422 0.84007,-0.3642 0.84007,-1.04057 0,-0.5203 -0.59218,-0.79346 -0.59217,-0.27315 -2.45135,-0.67639 -3.15371,-0.68939 -4.32432,-1.66492 -1.15682,-0.97556 -1.15682,-2.43239 0,-2.471392 2.34119,-3.889193 2.34119,-1.430808 6.33497,-1.430808 1.73523,0 3.47047,0.338201 1.73523,0.325172 2.54776,0.702386 l -0.90893,3.694094 -0.42693,0 q -0.97778,-0.71541 -2.36873,-1.15766 -1.37716,-0.45525 -2.83696,-0.45525 -1.58375,0 -2.43759,0.3642 -0.84006,0.3512 -0.84006,1.09262 0,0.57231 0.72989,0.8845 0.7299,0.29917 2.29987,0.62435 2.9196,0.59833 4.20037,1.50885 1.29453,0.91051 1.29453,2.54945 0,2.44536 -2.36873,3.86318 -2.36873,1.40479 -6.40383,1.40479 z"
       style="fill:#000000;fill-opacity:1;stroke:#eadacc;stroke-width:1.24221778;stroke-miterlimit:4;stroke-dasharray:none;stroke-opacity:1" />
    <path
       id="path4432"
       d="m 87.532175,112.19286 q -3.952468,0 -6.10086,-1.65193 -2.148382,-1.65193 -2.148382,-4.56556 0,-1.99015 0.702349,-3.65507 0.702368,-1.66494 2.024444,-2.926659 1.267001,-1.222695 3.167488,-1.938099 1.900487,-0.715404 4.172816,-0.715404 3.456698,0 5.205701,1.326757 1.76277,1.313739 1.76277,3.889195 0,0.8845 -0.1928,1.72998 -0.179032,0.84547 -0.482011,1.67794 l -11.485582,0 q 0,0.078 0,0.15608 0,0.065 0,0.14309 0,1.52186 1.129285,2.38035 1.129275,0.85848 3.456688,0.85848 1.625055,0 3.071078,-0.5203 1.459802,-0.52029 2.533993,-1.15764 l 0.550864,0 -0.922707,3.75912 q -1.446013,0.59833 -3.04353,0.89749 -1.597518,0.31218 -3.401604,0.31218 z"
       style="fill:#000000;fill-opacity:1;stroke:#dedacc;stroke-width:1.24221778;stroke-miterlimit:4;stroke-dasharray:none;stroke-opacity:1" />
    <path
       id="path4434"
       d="m 91.31939,102.61947 q 0.0413,-0.23415 0.05509,-0.42925 0.0275,-0.19512 0.0275,-0.40323 0,-1.02758 -0.674822,-1.57388 -0.674811,-0.546317 -1.941802,-0.546317 -1.528645,0 -2.575309,0.780447 -1.032864,0.78043 -1.56997,2.17223 l 6.679281,0 z"
       style="fill:#000000;fill-opacity:1;stroke:#efdacc;stroke-width:1.24221778;stroke-miterlimit:4;stroke-dasharray:none;stroke-opacity:1" />
    <path
       id="path4430"
       d="m 76.831572,100.44724 q 0,0.40322 -0.06879,0.87149 -0.05509,0.46826 -0.179031,0.97555 l -2.327414,9.50837 -5.01289,0 1.790308,-7.29713 q 0.179042,-0.75441 0.316758,-1.4438 0.151484,-0.68939 0.151484,-1.11865 0,-0.75441 -0.440695,-1.10561 -0.440685,-0.35121 -1.56997,-0.35121 -0.537096,0 -1.225676,0.24715 -0.674811,0.23412 -1.638833,0.7154 l -2.533983,10.35385 -5.0129,0 1.790318,-7.29713 q 0.151484,-0.63735 0.302979,-1.37877 0.151485,-0.74143 0.151485,-1.13165 0,-0.79345 -0.426917,-1.14464 -0.413148,-0.36421 -1.556192,-0.36421 -0.592189,0 -1.294548,0.26015 -0.702359,0.26015 -1.583739,0.7024 l -2.533982,10.35385 -4.985354,0 3.580626,-14.607252 4.985354,0 -0.39938,1.612916 q 1.514886,-0.949543 2.726793,-1.482839 1.225685,-0.533306 2.644171,-0.533306 1.528655,0 2.575298,0.650365 1.046654,0.637358 1.459792,1.886069 1.845412,-1.261708 3.305214,-1.899076 1.459791,-0.637358 2.823193,-0.637358 2.038213,0 3.112404,0.949543 1.07418,0.949533 1.07418,2.705528 z"
       style="fill:#000000;fill-opacity:1;stroke:#e7dacc;stroke-width:1.24221778;stroke-miterlimit:4;stroke-dasharray:none;stroke-opacity:1" />
    <path
       id="path4426"
       d="m 39.854622,110.25477 q -0.468243,0.28616 -1.129286,0.68939 -0.661042,0.40323 -1.225675,0.63736 -0.771222,0.29916 -1.446033,0.45526 -0.674811,0.15608 -1.87295,0.15608 -1.928024,0 -3.153709,-1.01456 -1.211907,-1.02759 -1.211907,-2.66651 0,-1.72998 0.867622,-2.92665 0.867602,-1.20968 2.575288,-1.92509 1.597518,-0.67638 3.800994,-0.97556 2.217234,-0.29917 4.792543,-0.44224 0.0138,-0.078 0.05509,-0.24715 0.0413,-0.18209 0.0413,-0.40322 0,-0.92352 -0.908928,-1.28773 -0.908938,-0.377213 -2.713024,-0.377213 -1.225686,0 -2.713024,0.390223 -1.473571,0.39022 -2.217245,0.65036 l -0.454464,0 0.729906,-3.459947 q 0.867612,-0.208113 2.685477,-0.468268 1.817865,-0.260144 3.621952,-0.260144 3.63573,0 5.329638,0.897502 1.707686,0.897512 1.707686,2.783577 0,0.26015 -0.05509,0.67638 -0.0413,0.41624 -0.123937,0.72842 l -2.423824,9.93761 -4.930259,0 0.371842,-1.54788 z"
       style="fill:#000000;fill-opacity:1;stroke:#f2dacc;stroke-width:1.24221778;stroke-miterlimit:4;stroke-dasharray:none;stroke-opacity:1" />
    <path
       id="path4428"
       d="m 41.162918,104.90875 q -1.322075,0.10411 -2.478897,0.24715 -1.156813,0.14307 -1.96935,0.41623 -0.840065,0.28616 -1.28077,0.80645 -0.440695,0.52029 -0.440695,1.37878 0,0.75443 0.578421,1.0666 0.59218,0.29917 1.707686,0.29917 0.729896,0 1.556192,-0.31216 0.840075,-0.3252 1.56997,-0.81947 l 0.757443,-3.08275 z"
       style="fill:#000000;fill-opacity:1;stroke:#dedacc;stroke-width:1.24221778;stroke-miterlimit:4;stroke-dasharray:none;stroke-opacity:1" />
    <path
       id="path4424"
       d="M 29.016303,97.195398 25.9039,110.12469 q -0.509548,2.08119 -1.446023,3.45997 -0.936475,1.37877 -2.272329,2.19824 -1.37717,0.84547 -2.988456,1.18366 -1.611276,0.33819 -3.621952,0.33819 -1.666381,0 -3.195025,-0.1951 -1.528665,-0.18211 -2.575309,-0.42925 l 0.757443,-3.59003 0.605959,0 q 1.143044,0.41624 2.313635,0.66338 1.170601,0.24713 2.079518,0.24713 1.308317,0 2.272329,-0.23412 0.964032,-0.22113 1.514886,-0.65037 0.59219,-0.45526 0.936485,-1.11864 0.358064,-0.66337 0.578401,-1.62592 l 0.06879,-0.27315 q -1.074191,0.68939 -2.134613,1.09262 -1.060422,0.40324 -2.396276,0.40324 -2.602836,0 -4.076416,-1.23571 -1.459791,-1.2357 -1.459791,-3.73311 0,-4.30542 2.575308,-7.062989 2.575298,-2.770562 6.252334,-2.770562 1.322086,0 2.396277,0.299167 1.087959,0.299167 1.748992,0.754438 l 0.344305,-0.650376 4.833858,0 z"
       style="fill:#000000;fill-opacity:1;stroke:#e0dacc;stroke-width:1.24221778;stroke-miterlimit:4;stroke-dasharray:none;stroke-opacity:1" />
    <path
       id="path4149-3"
       d="m 23.204654,100.57731 q -0.399379,-0.1691 -1.060422,-0.31218 -0.647264,-0.15608 -1.143054,-0.15608 -2.217234,0 -3.566857,1.57388 -1.349623,1.57389 -1.349623,4.04529 0,1.11862 0.578411,1.74298 0.578401,0.62436 2.079519,0.62436 0.729906,0 1.47357,-0.26015 0.757443,-0.27317 1.418486,-0.63736 l 1.56997,-6.62074 z"
       style="fill:#000000;fill-opacity:1;stroke:#e0dacc;stroke-width:1.24221778;stroke-miterlimit:4;stroke-dasharray:none;stroke-opacity:1" />
    <text
       transform="scale(0.98206401,1.0182636)"
       sodipodi:linespacing="125%"
       id="text4172"
       y="46.366417"
       x="-4.2451239"
       style="font-style:normal;font-variant:normal;font-weight:bold;font-stretch:normal;font-size:59.58468628px;line-height:125%;font-family:sans-serif;-inkscape-font-specification:'sans-serif Bold';letter-spacing:9.01915741px;word-spacing:0px;fill:#000000;fill-opacity:1;stroke:#e0dacc;stroke-width:3.11968398;stroke-linecap:butt;stroke-linejoin:miter;stroke-miterlimit:4;stroke-dasharray:none;stroke-opacity:1;"
       xml:space="preserve"><tspan
         style="stroke:#e0dacc;stroke-width:3.11968398;stroke-miterlimit:4;stroke-dasharray:none;stroke-opacity:1;"
         y="46.366417"
         x="-4.2451239"
         id="tspan4174"
         sodipodi:role="line">P P</tspan></text>
    <path
       id="path4446"
       d="M 49.99673 97.52339 C 50.752905 96.56562 52.899632 94.99355 54.545852 94.192022 C 55.470223 93.741956 57.648566 92.910416 59.38661 92.344139 C 70.16053 88.833928 75.216015 85.441789 79.573473 78.799127 C 81.006519 76.614531 82.462353 73.660363 82.961238 71.924671 C 83.152039 71.260841 83.418999 70.718232 83.554462 70.718877 C 84.305381 70.722377 85.387892 71.228021 86.033381 71.876624 L 86.76835 72.615153 L 87.424218 71.045106 C 89.019503 67.226272 89.752179 63.450834 89.753437 59.042881 C 89.754269 56.094938 89.447303 53.597397 88.776093 51.091391 C 88.447849 49.865829 88.083099 49.138258 88.083099 49.70905 C 88.083099 50.125302 85.532467 55.134573 84.198754 57.337627 C 81.994009 60.979461 79.383676 64.542573 77.362134 66.669597 C 76.77109 67.291493 76.609652 67.579693 76.818697 67.63977 C 79.399311 68.381389 79.517283 68.436145 79.646202 68.952295 C 79.969078 70.244986 78.426777 73.26369 75.731894 76.613667 C 73.40787 79.50263 70.157476 81.384214 66.768808 81.802223 C 62.906673 82.278642 59.336406 80.942838 56.577815 77.989295 C 54.703212 75.982203 53.792559 73.260224 53.161935 67.779006 C 52.79336 64.575461 52.79269 40.826567 53.161103 39.527359 C 53.643804 37.825266 53.288815 37.890292 61.767688 37.95111 L 69.282508 38.00501 L 69.282508 35.574673 L 69.282508 33.144338 L 61.265607 33.144338 C 54.483392 33.144338 53.209633 33.097038 52.994998 32.837157 C 52.820582 32.625998 52.763621 31.842785 52.812739 30.331537 C 52.880519 28.247919 52.915278 28.10063 53.477516 27.511331 C 53.803832 27.169358 54.641461 26.680487 55.338919 26.424955 C 56.340097 26.058142 56.919269 25.64498 58.090479 24.462096 C 62.665728 19.841222 62.672902 12.897477 58.107219 8.2509453 C 56.549536 6.6656847 54.86611 5.6770091 52.770317 5.1165698 C 51.288457 4.7203057 47.586461 4.7203057 46.104601 5.1165698 C 40.418766 6.6370243 36.664364 12.255137 37.511115 17.975896 C 38.050078 21.617146 40.756699 25.406678 43.54919 26.429805 C 44.239363 26.682672 45.071046 27.169361 45.397372 27.511334 C 45.959701 28.100633 45.994422 28.247922 46.062149 30.33154 C 46.111159 31.842788 46.054049 32.626002 45.87988 32.837161 C 45.665225 33.097033 44.391446 33.144341 37.60924 33.144341 L 29.592339 33.144341 L 29.592339 35.572979 L 29.592339 38.001617 L 37.060375 37.963067 C 41.167767 37.941867 44.671413 37.984297 44.846204 38.057377 C 45.617466 38.379764 45.752382 39.055962 45.939013 43.534756 C 46.225119 50.400715 46.015313 65.637812 45.590639 68.828561 C 44.897808 74.034815 44.044036 76.269037 41.959343 78.331329 C 39.585774 80.679398 36.859579 81.861595 33.770259 81.882468 C 29.755817 81.909598 25.753642 79.937893 23.21065 76.680207 C 19.835598 72.356576 18.518474 69.490692 19.467957 68.536605 C 19.796109 68.206858 21.052609 67.78229 21.706539 67.780196 C 22.307962 67.778196 22.1324 67.387249 20.93135 66.053626 C 18.104383 62.91457 14.795496 57.869696 12.247582 52.813889 C 11.328651 50.990478 10.531779 49.620833 10.476756 49.770236 C 10.421666 49.919639 10.194962 50.762026 9.972818 51.642209 C 9.240102 54.545435 9.057894 56.51723 9.182268 60.19776 C 9.331916 64.625849 9.925892 67.398059 11.561823 71.303344 L 12.114879 72.62364 L 12.875244 71.877559 C 13.544069 71.221304 14.598799 70.717725 15.304445 70.717725 C 15.432684 70.717725 15.744085 71.355317 15.996505 72.134598 C 17.46342 76.663236 21.175805 82.100035 24.892199 85.162323 C 28.256607 87.934582 33.387428 90.502989 38.783748 92.116212 C 43.195347 93.43504 46.67312 95.235248 48.487576 97.13918 C 48.941735 97.615748 49.381426 98.005652 49.464656 98.005652 C 49.547856 98.005652 49.787329 97.788644 49.996739 97.523411 L 49.99673 97.52339 z "
       style="fill:none;fill-opacity:1;stroke:#f2dacc;stroke-width:1.24221778;stroke-miterlimit:4;stroke-dasharray:none;stroke-opacity:1" />
  </g>
</svg>
